#!OML:ASF H:\Terrain\Walking\May29\JustinRory\Justin.ASF
:FULLY-SPECIFIED
:DEGREES
777
root 12.3268 17.6749 6.0527 -179.401 -46.4292 184.46
lowerback 5.91359 -6.05776 -2.59252
upperback 0.513569 -8.24351 3.71899
thorax -1.84527 -4.13655 5.84842
lowerneck -2.82404 -8.06799 -16.7406
upperneck 11.9354 -11.2567 9.61345
head 5.55025 -5.86317 4.96075
rclavicle -6.86056e-014 -2.68359e-014
rhumerus -27.1033 10.9487 -79.2112
rradius 79.6077
rwrist -8.90662
rhand -16.8736 20.114
rfingers 7.12502
rthumb 9.35727 -9.65835
lclavicle -6.86056e-014 -2.68359e-014
lhumerus -21.4588 -1.39764 80.0247
lradius 38.1865
lwrist -4.42819
lhand -1.52194 33.0357
lfingers 7.12502
lthumb 24.1318 61.538
rfemur -26.5399 -4.71628 22.5341
rtibia 33.2823
rfoot -9.1473 -6.58558
rtoes 20.1372
lfemur 0.144636 7.04524 -18.0778
ltibia 24.6128
lfoot -23.0614 14.2418
ltoes -3.84816
778
root 12.2901 17.6747 6.04027 -178.946 -47.1322 183.328
lowerback 6.30365 -6.20536 -3.35767
upperback 0.300774 -8.48384 3.46709
thorax -2.18243 -4.22849 6.08402
lowerneck -2.39326 -8.06219 -16.464
upperneck 11.828 -11.3018 9.29667
head 5.41596 -5.90357 4.83081
rclavicle -2.91965e-014 -9.34288e-015
rhumerus -25.5723 11.8355 -79.4144
rradius 81.2316
rwrist -7.60326
rhand -16.9585 19.7951
rfingers 7.12502
rthumb 9.2754 -9.9809
lclavicle -2.91965e-014 -9.34288e-015
lhumerus -20.7439 -4.81454 81.3553
lradius 40.1805
lwrist -3.30268
lhand -1.43002 32.72
lfingers 7.12502
lthumb 24.22 61.2105
rfemur -25.9201 -4.71756 21.4741
rtibia 33.3261
rfoot -9.03647 -7.43003
rtoes 18.9792
lfemur 0.594193 6.58625 -18.9118
ltibia 24.7429
lfoot -23.3807 13.9683
ltoes -2.27448
779
root 12.2784 17.6808 6.06484 -178.359 -45.2949 183.909
lowerback 5.48317 -5.47617 -2.88296
upperback -0.0851461 -7.45403 3.57061
thorax -2.30147 -3.70444 5.81114
lowerneck -2.13983 -8.20036 -16.2492
upperneck 11.6759 -11.517 9.14617
head 5.33332 -6.01077 4.7411
rclavicle -1.79652e-014 -2.62396e-014
rhumerus -23.42 12.2328 -79.4322
rradius 82.5352
rwrist -6.73989
rhand -16.8737 19.5831
rfingers 7.12502
rthumb 9.35717 -10.1893
lclavicle -1.79652e-014 -2.62396e-014
lhumerus -19.4113 -7.86707 82.5514
lradius 41.7767
lwrist -2.96259
lhand -1.35555 29.6246
lfingers 7.12502
lthumb 24.2914 58.1056
rfemur -27.3815 -1.96513 21.51
rtibia 33.2851
rfoot -8.40598 -7.95321
rtoes 22.4573
lfemur -0.62142 6.97672 -19.0622
ltibia 25.1132
lfoot -23.6683 15.3801
ltoes -1.08287
780
root 12.2589 17.6253 6.10681 -179.243 -43.7508 184.347
lowerback 6.04425 -4.80911 -2.40575
upperback 0.181595 -6.54963 3.52246
thorax -2.50362 -3.25915 5.4947
lowerneck -2.28335 -8.40172 -16.3299
upperneck 11.6757 -11.7642 9.20998
head 5.39906 -6.12375 4.743
rclavicle -1.26725e-014 -2.34566e-014
rhumerus -20.8469 12.4038 -79.3461
rradius 83.7708
rwrist -6.57563
rhand -16.6107 19.5946
rfingers 7.12502
rthumb 9.61095 -10.1662
lclavicle -1.26725e-014 -2.34566e-014
lhumerus -17.3829 -10.6494 83.5351
lradius 43.0309
lwrist -2.46817
lhand 1.53398 30.9505
lfingers 7.12502
lthumb 27.0588 59.0318
rfemur -26.8094 -1.47491 22.051
rtibia 33.2039
rfoot -6.78332 -6.74539
rtoes 15.9479
lfemur -0.28811 7.24941 -19.1422
ltibia 25.7909
lfoot -24.2016 16.7783
ltoes -1.25924
781
root 12.2274 17.6172 6.0918 -179.152 -44.0898 184.253
lowerback 5.49691 -4.80521 -2.46848
upperback 0.278079 -6.54349 3.44724
thorax -2.10097 -3.26683 5.38691
lowerneck -2.39197 -8.55964 -16.3804
upperneck 11.7884 -11.9791 9.29804
head 5.48923 -6.22442 4.75122
rclavicle 3.0091e-014 -2.60408e-014
rhumerus -18.5022 12.3854 -79.2392
rradius 84.891
rwrist -6.24924
rhand -16.3825 19.6342
rfingers 7.12502
rthumb 9.83118 -10.1163
lclavicle 3.0091e-014 -2.60408e-014
lhumerus -15.5263 -13.596 84.3131
lradius 44.4767
lwrist -1.69452
lhand 1.5212 31.5948
lfingers 7.12502
lthumb 27.0466 59.678
rfemur -26.4405 -1.44135 21.8204
rtibia 32.9558
rfoot -6.31548 -5.90732
rtoes 15.8758
lfemur -0.648823 7.31037 -19.1842
ltibia 26.6371
lfoot -24.5738 16.5875
ltoes -1.73533
